<svg xmlns="http://www.w3.org/2000/svg" xmlns:xlink="http://www.w3.org/1999/xlink" width="24" height="24" preserveAspectRatio="xMidYMid meet" viewBox="0 0 24 24" style="-ms-transform: rotate(360deg); -webkit-transform: rotate(360deg); transform: rotate(360deg);"><path d="M19 4h-1V2h-2v2H8V2H6v2H5a2 2 0 0 0-2 2v14a2 2 0 0 0 2 2h14a2 2 0 0 0 2-2V6a2 2 0 0 0-2-2m0 16H5V10h14v10m0-12H5V6h14m-7 5c2 0 3 2.42 1.59 3.84c-1.42 1.42-3.84.41-3.84-1.59C9.75 12 10.75 11 12 11m4.5 7.88V19h-9v-.12c0-1.25 2-2.25 4.5-2.25s4.5 1 4.5 2.25z" fill="#626262"/><rect x="0" y="0" width="24" height="24" fill="rgba(0, 0, 0, 0)" /></svg>