<?xml version="1.0" encoding="UTF-8" standalone="no"?>
<!DOCTYPE svg PUBLIC "-//W3C//DTD SVG 1.1//EN" "http://www.w3.org/Graphics/SVG/1.1/DTD/svg11.dtd">
<svg width="100%" height="100%" viewBox="0 0 1198 2732" version="1.1" xmlns="http://www.w3.org/2000/svg" xmlns:xlink="http://www.w3.org/1999/xlink" xml:space="preserve" xmlns:serif="http://www.serif.com/" style="fill-rule:evenodd;clip-rule:evenodd;stroke-linejoin:round;stroke-miterlimit:2;">
    <g transform="matrix(1.67329e-16,-2.73268,2.73268,1.67329e-16,-948.705,4032.13)">
        <g transform="matrix(1.76664,0,0,1.76664,-515.435,-760.329)">
            <g transform="matrix(101.107,0,0,101.107,828.591,821.268)">
                <path d="M0.103,-0.396L0.105,-0.396C0.109,-0.409 0.116,-0.423 0.125,-0.438C0.134,-0.453 0.147,-0.468 0.162,-0.481C0.177,-0.494 0.196,-0.504 0.218,-0.513C0.239,-0.522 0.264,-0.526 0.292,-0.526C0.331,-0.526 0.366,-0.519 0.395,-0.504C0.424,-0.489 0.448,-0.47 0.467,-0.445C0.486,-0.42 0.5,-0.392 0.509,-0.359C0.518,-0.326 0.523,-0.292 0.523,-0.256C0.523,-0.217 0.518,-0.181 0.509,-0.148C0.5,-0.115 0.486,-0.087 0.467,-0.064C0.448,-0.04 0.424,-0.021 0.395,-0.008C0.366,0.005 0.331,0.012 0.292,0.012C0.249,0.012 0.211,0.003 0.178,-0.016C0.145,-0.035 0.12,-0.065 0.105,-0.107L0.103,-0.107L0.103,0.184L0.065,0.184L0.065,-0.514L0.103,-0.514L0.103,-0.396ZM0.292,-0.021C0.325,-0.021 0.354,-0.027 0.379,-0.04C0.403,-0.053 0.423,-0.07 0.439,-0.091C0.454,-0.112 0.466,-0.137 0.474,-0.166C0.481,-0.194 0.485,-0.224 0.485,-0.256C0.485,-0.285 0.481,-0.314 0.474,-0.343C0.467,-0.371 0.455,-0.396 0.44,-0.419C0.425,-0.441 0.405,-0.459 0.381,-0.473C0.356,-0.486 0.327,-0.493 0.292,-0.493C0.258,-0.493 0.229,-0.486 0.205,-0.473C0.181,-0.46 0.162,-0.442 0.147,-0.42C0.131,-0.398 0.121,-0.373 0.114,-0.345C0.107,-0.316 0.104,-0.287 0.104,-0.256C0.104,-0.225 0.107,-0.196 0.113,-0.168C0.119,-0.139 0.129,-0.114 0.144,-0.093C0.158,-0.071 0.177,-0.054 0.202,-0.041C0.226,-0.028 0.256,-0.021 0.292,-0.021Z" style="fill-rule:nonzero;"/>
            </g>
            <g transform="matrix(101.107,0,0,101.107,884.806,821.268)">
                <path d="M0.071,-0.252L0.071,-0.246C0.071,-0.216 0.075,-0.187 0.083,-0.16C0.091,-0.133 0.103,-0.109 0.119,-0.088C0.134,-0.067 0.154,-0.051 0.178,-0.039C0.201,-0.027 0.229,-0.021 0.26,-0.021C0.311,-0.021 0.352,-0.035 0.382,-0.062C0.412,-0.089 0.433,-0.126 0.444,-0.174L0.482,-0.174C0.471,-0.114 0.446,-0.068 0.409,-0.036C0.371,-0.004 0.321,0.012 0.259,0.012C0.221,0.012 0.188,0.005 0.16,-0.009C0.131,-0.022 0.108,-0.041 0.089,-0.065C0.069,-0.088 0.055,-0.116 0.046,-0.149C0.037,-0.181 0.032,-0.216 0.032,-0.253C0.032,-0.289 0.037,-0.323 0.047,-0.357C0.056,-0.39 0.071,-0.419 0.09,-0.444C0.109,-0.468 0.134,-0.489 0.163,-0.504C0.192,-0.519 0.226,-0.526 0.265,-0.526C0.301,-0.526 0.333,-0.519 0.361,-0.506C0.388,-0.493 0.411,-0.474 0.43,-0.452C0.449,-0.428 0.463,-0.402 0.473,-0.372C0.482,-0.341 0.487,-0.309 0.487,-0.274L0.486,-0.252L0.071,-0.252ZM0.448,-0.285C0.447,-0.313 0.442,-0.339 0.434,-0.365C0.426,-0.39 0.414,-0.412 0.399,-0.431C0.383,-0.45 0.364,-0.465 0.342,-0.476C0.319,-0.487 0.294,-0.493 0.265,-0.493C0.234,-0.493 0.207,-0.487 0.184,-0.476C0.161,-0.464 0.141,-0.448 0.125,-0.43C0.109,-0.411 0.097,-0.388 0.088,-0.363C0.079,-0.338 0.074,-0.312 0.072,-0.285L0.448,-0.285Z" style="fill-rule:nonzero;"/>
            </g>
            <g transform="matrix(101.107,0,0,101.107,937.281,821.268)">
                <path d="M0.032,-0.257C0.032,-0.294 0.037,-0.328 0.048,-0.361C0.058,-0.393 0.073,-0.421 0.093,-0.446C0.113,-0.471 0.138,-0.49 0.167,-0.505C0.196,-0.519 0.23,-0.526 0.268,-0.526C0.306,-0.526 0.34,-0.519 0.369,-0.505C0.398,-0.49 0.423,-0.471 0.443,-0.446C0.463,-0.421 0.478,-0.393 0.489,-0.361C0.499,-0.328 0.504,-0.294 0.504,-0.257C0.504,-0.22 0.499,-0.186 0.489,-0.153C0.478,-0.12 0.463,-0.092 0.443,-0.068C0.423,-0.043 0.398,-0.024 0.369,-0.01C0.34,0.005 0.306,0.012 0.268,0.012C0.23,0.012 0.196,0.005 0.167,-0.01C0.138,-0.024 0.113,-0.043 0.093,-0.068C0.073,-0.092 0.058,-0.12 0.048,-0.153C0.037,-0.186 0.032,-0.22 0.032,-0.257ZM0.07,-0.257C0.07,-0.226 0.074,-0.197 0.083,-0.169C0.092,-0.14 0.104,-0.115 0.121,-0.093C0.138,-0.071 0.158,-0.054 0.183,-0.041C0.208,-0.028 0.236,-0.021 0.268,-0.021C0.3,-0.021 0.328,-0.028 0.353,-0.041C0.378,-0.054 0.398,-0.071 0.415,-0.093C0.432,-0.115 0.444,-0.14 0.453,-0.169C0.462,-0.197 0.466,-0.226 0.466,-0.257C0.466,-0.288 0.462,-0.317 0.453,-0.346C0.444,-0.374 0.432,-0.399 0.415,-0.421C0.398,-0.443 0.378,-0.46 0.353,-0.474C0.328,-0.487 0.3,-0.493 0.268,-0.493C0.236,-0.493 0.208,-0.487 0.183,-0.474C0.158,-0.46 0.138,-0.443 0.121,-0.421C0.104,-0.399 0.092,-0.374 0.083,-0.346C0.074,-0.317 0.07,-0.288 0.07,-0.257Z" style="fill-rule:nonzero;"/>
            </g>
            <g transform="matrix(101.107,0,0,101.107,991.576,821.268)">
                <path d="M0.103,-0.396L0.105,-0.396C0.109,-0.409 0.116,-0.423 0.125,-0.438C0.134,-0.453 0.147,-0.468 0.162,-0.481C0.177,-0.494 0.196,-0.504 0.218,-0.513C0.239,-0.522 0.264,-0.526 0.292,-0.526C0.331,-0.526 0.366,-0.519 0.395,-0.504C0.424,-0.489 0.448,-0.47 0.467,-0.445C0.486,-0.42 0.5,-0.392 0.509,-0.359C0.518,-0.326 0.523,-0.292 0.523,-0.256C0.523,-0.217 0.518,-0.181 0.509,-0.148C0.5,-0.115 0.486,-0.087 0.467,-0.064C0.448,-0.04 0.424,-0.021 0.395,-0.008C0.366,0.005 0.331,0.012 0.292,0.012C0.249,0.012 0.211,0.003 0.178,-0.016C0.145,-0.035 0.12,-0.065 0.105,-0.107L0.103,-0.107L0.103,0.184L0.065,0.184L0.065,-0.514L0.103,-0.514L0.103,-0.396ZM0.292,-0.021C0.325,-0.021 0.354,-0.027 0.379,-0.04C0.403,-0.053 0.423,-0.07 0.439,-0.091C0.454,-0.112 0.466,-0.137 0.474,-0.166C0.481,-0.194 0.485,-0.224 0.485,-0.256C0.485,-0.285 0.481,-0.314 0.474,-0.343C0.467,-0.371 0.455,-0.396 0.44,-0.419C0.425,-0.441 0.405,-0.459 0.381,-0.473C0.356,-0.486 0.327,-0.493 0.292,-0.493C0.258,-0.493 0.229,-0.486 0.205,-0.473C0.181,-0.46 0.162,-0.442 0.147,-0.42C0.131,-0.398 0.121,-0.373 0.114,-0.345C0.107,-0.316 0.104,-0.287 0.104,-0.256C0.104,-0.225 0.107,-0.196 0.113,-0.168C0.119,-0.139 0.129,-0.114 0.144,-0.093C0.158,-0.071 0.177,-0.054 0.202,-0.041C0.226,-0.028 0.256,-0.021 0.292,-0.021Z" style="fill-rule:nonzero;"/>
            </g>
            <g transform="matrix(101.107,0,0,101.107,1047.79,821.268)">
                <rect x="0.065" y="-0.714" width="0.038" height="0.714" style="fill-rule:nonzero;"/>
            </g>
            <g transform="matrix(101.107,0,0,101.107,1064.78,821.268)">
                <path d="M0.071,-0.252L0.071,-0.246C0.071,-0.216 0.075,-0.187 0.083,-0.16C0.091,-0.133 0.103,-0.109 0.119,-0.088C0.134,-0.067 0.154,-0.051 0.178,-0.039C0.201,-0.027 0.229,-0.021 0.26,-0.021C0.311,-0.021 0.352,-0.035 0.382,-0.062C0.412,-0.089 0.433,-0.126 0.444,-0.174L0.482,-0.174C0.471,-0.114 0.446,-0.068 0.409,-0.036C0.371,-0.004 0.321,0.012 0.259,0.012C0.221,0.012 0.188,0.005 0.16,-0.009C0.131,-0.022 0.108,-0.041 0.089,-0.065C0.069,-0.088 0.055,-0.116 0.046,-0.149C0.037,-0.181 0.032,-0.216 0.032,-0.253C0.032,-0.289 0.037,-0.323 0.047,-0.357C0.056,-0.39 0.071,-0.419 0.09,-0.444C0.109,-0.468 0.134,-0.489 0.163,-0.504C0.192,-0.519 0.226,-0.526 0.265,-0.526C0.301,-0.526 0.333,-0.519 0.361,-0.506C0.388,-0.493 0.411,-0.474 0.43,-0.452C0.449,-0.428 0.463,-0.402 0.473,-0.372C0.482,-0.341 0.487,-0.309 0.487,-0.274L0.486,-0.252L0.071,-0.252ZM0.448,-0.285C0.447,-0.313 0.442,-0.339 0.434,-0.365C0.426,-0.39 0.414,-0.412 0.399,-0.431C0.383,-0.45 0.364,-0.465 0.342,-0.476C0.319,-0.487 0.294,-0.493 0.265,-0.493C0.234,-0.493 0.207,-0.487 0.184,-0.476C0.161,-0.464 0.141,-0.448 0.125,-0.43C0.109,-0.411 0.097,-0.388 0.088,-0.363C0.079,-0.338 0.074,-0.312 0.072,-0.285L0.448,-0.285Z" style="fill-rule:nonzero;"/>
            </g>
        </g>
        <g transform="matrix(1.26189,0,0,1.26189,470.846,75.198)">
            <path d="M77.9,379.8L53.3,379.8L21,290.6L47.2,290.6L65.7,356.4L66.2,356.4L85.2,290.6L110.3,290.6L77.9,379.8ZM188.5,362.3C188.5,372.9 190.9,375.3 193.8,376.4L193.8,379.8L168.4,379.8C167.1,376.4 166.3,372.8 166,369.2C158.9,377.7 148.2,382.5 137.1,382.2C123.6,382.2 109.8,374.8 109.8,356.3C109.8,337.8 120.9,329.8 135.7,327.7L157.1,324.5C160.8,324 165.3,322.4 165.3,317.4C165.3,307.4 155.8,306.9 149.6,306.9C138,306.9 135.8,314 135.3,319.3L112.5,319.3C115.1,292.1 134.2,288.1 152.5,288.1C165.2,288.1 188.2,292.1 188.2,314L188.5,362.3ZM165.6,336.4C163.2,338.2 159.2,339.9 149.5,341.2C139.7,342.4 133.6,344.9 133.6,354.7C133.3,360.4 137.7,365.2 143.4,365.6L144.5,365.6C155.1,365.6 165.7,358.7 165.7,348L165.7,336.4L165.6,336.4ZM226.4,379.8L202.8,379.8L202.8,259.4L226.4,259.4L226.4,379.8ZM271.1,290.6L285.9,290.6L285.9,307.3L271.1,307.3L271.1,356C271.1,361 271.4,363.1 280.9,363.1L285.9,363.1L285.9,380.9L271.6,380.9C251.2,380.9 247.5,373.2 247.5,361.5L247.5,307.3L235.3,307.3L235.3,290.6L247.5,290.6L247.5,266.5L271.1,266.5L271.1,290.6ZM378,353.6C371.6,375.3 353.6,382.2 338.3,382.2C313.2,382.2 293.8,370.3 293.8,333.5C293.8,322.6 297.5,288.3 336.7,288.3C354.4,288.3 378.8,296.8 378.8,337.5L378.8,341.7L317.4,341.7C317.9,348.3 319.5,363.4 338.3,363.4C344.9,363.4 351.8,360.2 353.7,353.6L378,353.6ZM354.7,326.3C353.4,312 343.8,307.5 336.4,307.5C329,307.5 319.5,314.6 317.9,326.3L354.7,326.3ZM467.5,347.2C466.7,356.5 459.6,382.1 426.8,382.1C394,382.1 385.3,356.4 385.3,337.6C385.3,308.8 398,288.2 428.2,288.2C442.5,288.2 465.8,294.6 467.9,322.3L444.1,322.3C443,316.8 439.6,308 429.6,308L428.3,308C413.5,308 409.8,322.8 409.8,333.9C409.8,345 410.1,362.8 427.8,362.8C440,362.8 443.9,351.4 443.9,347.2L467.5,347.2ZM559.3,379.8L535.7,379.8L535.7,325.8C535.7,319.2 535.2,308.2 520.3,308.2C509.7,308.2 501.8,315.3 501.8,328.8L501.8,379.8L478.2,379.8L478.2,259.4L501.8,259.4L501.8,302.3L502.1,302.3C505,294.9 515.3,288.3 528,288.3C545.5,288.3 559.2,298.6 559.2,318.2L559.3,379.8ZM573.9,363.1L621,363.1L621,379.9L573.9,379.9L573.9,363.1Z" style="fill-rule:nonzero;"/>
        </g>
    </g>
</svg>
