<?xml version="1.0" encoding="UTF-8" standalone="no"?>
<!-- Created with Inkscape (http://www.inkscape.org/) -->

<svg
   width="210mm"
   height="84mm"
   viewBox="0 0 210 84"
   version="1.1"
   id="svg882"
   inkscape:version="1.1 (c68e22c387, 2021-05-23)"
   sodipodi:docname="logo_splash.svg"
   xmlns:inkscape="http://www.inkscape.org/namespaces/inkscape"
   xmlns:sodipodi="http://sodipodi.sourceforge.net/DTD/sodipodi-0.dtd"
   xmlns="http://www.w3.org/2000/svg"
   xmlns:svg="http://www.w3.org/2000/svg">
  <sodipodi:namedview
     id="namedview884"
     pagecolor="#ffffff"
     bordercolor="#666666"
     borderopacity="1.0"
     inkscape:pageshadow="2"
     inkscape:pageopacity="0.0"
     inkscape:pagecheckerboard="0"
     inkscape:document-units="mm"
     showgrid="false"
     inkscape:zoom="0.33540614"
     inkscape:cx="585.85689"
     inkscape:cy="96.89745"
     inkscape:window-width="1920"
     inkscape:window-height="1017"
     inkscape:window-x="1912"
     inkscape:window-y="-8"
     inkscape:window-maximized="1"
     inkscape:current-layer="layer1" />
  <defs
     id="defs879" />
  <g
     inkscape:label="Laag 1"
     inkscape:groupmode="layer"
     id="layer1">
    <g
       transform="matrix(0.20133897,0,0,0.20133897,-89.809601,-70.93117)"
       id="g32"
       style="clip-rule:evenodd;fill-rule:evenodd;stroke-width:3.59107;stroke-linejoin:round;stroke-miterlimit:2;fill:#ffffff">
      <g
         transform="matrix(1.76664,0,0,1.76664,-515.435,-760.329)"
         id="g26"
         style="stroke-width:3.59107;fill:#ffffff">
        <g
           transform="matrix(101.107,0,0,101.107,828.591,821.268)"
           id="g4"
           style="stroke-width:3.59107;fill:#ffffff">
          <path
             d="m 0.103,-0.396 h 0.002 c 0.004,-0.013 0.011,-0.027 0.02,-0.042 0.009,-0.015 0.022,-0.03 0.037,-0.043 0.015,-0.013 0.034,-0.023 0.056,-0.032 0.021,-0.009 0.046,-0.013 0.074,-0.013 0.039,0 0.074,0.007 0.103,0.022 0.029,0.015 0.053,0.034 0.072,0.059 0.019,0.025 0.033,0.053 0.042,0.086 0.009,0.033 0.014,0.067 0.014,0.103 0,0.039 -0.005,0.075 -0.014,0.108 C 0.5,-0.115 0.486,-0.087 0.467,-0.064 0.448,-0.04 0.424,-0.021 0.395,-0.008 0.366,0.005 0.331,0.012 0.292,0.012 0.249,0.012 0.211,0.003 0.178,-0.016 0.145,-0.035 0.12,-0.065 0.105,-0.107 H 0.103 V 0.184 H 0.065 v -0.698 h 0.038 z m 0.189,0.375 c 0.033,0 0.062,-0.006 0.087,-0.019 0.024,-0.013 0.044,-0.03 0.06,-0.051 0.015,-0.021 0.027,-0.046 0.035,-0.075 0.007,-0.028 0.011,-0.058 0.011,-0.09 0,-0.029 -0.004,-0.058 -0.011,-0.087 C 0.467,-0.371 0.455,-0.396 0.44,-0.419 0.425,-0.441 0.405,-0.459 0.381,-0.473 0.356,-0.486 0.327,-0.493 0.292,-0.493 c -0.034,0 -0.063,0.007 -0.087,0.02 -0.024,0.013 -0.043,0.031 -0.058,0.053 -0.016,0.022 -0.026,0.047 -0.033,0.075 -0.007,0.029 -0.01,0.058 -0.01,0.089 0,0.031 0.003,0.06 0.009,0.088 0.006,0.029 0.016,0.054 0.031,0.075 0.014,0.022 0.033,0.039 0.058,0.052 0.024,0.013 0.054,0.02 0.09,0.02 z"
             style="fill-rule:nonzero;stroke-width:3.59107;fill:#ffffff"
             id="path2" />
        </g>
        <g
           transform="matrix(101.107,0,0,101.107,884.806,821.268)"
           id="g8"
           style="stroke-width:3.59107;fill:#ffffff">
          <path
             d="m 0.071,-0.252 v 0.006 c 0,0.03 0.004,0.059 0.012,0.086 0.008,0.027 0.02,0.051 0.036,0.072 0.015,0.021 0.035,0.037 0.059,0.049 0.023,0.012 0.051,0.018 0.082,0.018 0.051,0 0.092,-0.014 0.122,-0.041 0.03,-0.027 0.051,-0.064 0.062,-0.112 H 0.482 C 0.471,-0.114 0.446,-0.068 0.409,-0.036 0.371,-0.004 0.321,0.012 0.259,0.012 0.221,0.012 0.188,0.005 0.16,-0.009 0.131,-0.022 0.108,-0.041 0.089,-0.065 0.069,-0.088 0.055,-0.116 0.046,-0.149 0.037,-0.181 0.032,-0.216 0.032,-0.253 c 0,-0.036 0.005,-0.07 0.015,-0.104 0.009,-0.033 0.024,-0.062 0.043,-0.087 0.019,-0.024 0.044,-0.045 0.073,-0.06 0.029,-0.015 0.063,-0.022 0.102,-0.022 0.036,0 0.068,0.007 0.096,0.02 0.027,0.013 0.05,0.032 0.069,0.054 0.019,0.024 0.033,0.05 0.043,0.08 0.009,0.031 0.014,0.063 0.014,0.098 L 0.486,-0.252 Z M 0.448,-0.285 C 0.447,-0.313 0.442,-0.339 0.434,-0.365 0.426,-0.39 0.414,-0.412 0.399,-0.431 0.383,-0.45 0.364,-0.465 0.342,-0.476 0.319,-0.487 0.294,-0.493 0.265,-0.493 c -0.031,0 -0.058,0.006 -0.081,0.017 -0.023,0.012 -0.043,0.028 -0.059,0.046 -0.016,0.019 -0.028,0.042 -0.037,0.067 -0.009,0.025 -0.014,0.051 -0.016,0.078 z"
             style="fill-rule:nonzero;stroke-width:3.59107;fill:#ffffff"
             id="path6" />
        </g>
        <g
           transform="matrix(101.107,0,0,101.107,937.281,821.268)"
           id="g12"
           style="stroke-width:3.59107;fill:#ffffff">
          <path
             d="m 0.032,-0.257 c 0,-0.037 0.005,-0.071 0.016,-0.104 0.01,-0.032 0.025,-0.06 0.045,-0.085 0.02,-0.025 0.045,-0.044 0.074,-0.059 0.029,-0.014 0.063,-0.021 0.101,-0.021 0.038,0 0.072,0.007 0.101,0.021 0.029,0.015 0.054,0.034 0.074,0.059 0.02,0.025 0.035,0.053 0.046,0.085 0.01,0.033 0.015,0.067 0.015,0.104 0,0.037 -0.005,0.071 -0.015,0.104 C 0.478,-0.12 0.463,-0.092 0.443,-0.068 0.423,-0.043 0.398,-0.024 0.369,-0.01 0.34,0.005 0.306,0.012 0.268,0.012 0.23,0.012 0.196,0.005 0.167,-0.01 0.138,-0.024 0.113,-0.043 0.093,-0.068 0.073,-0.092 0.058,-0.12 0.048,-0.153 0.037,-0.186 0.032,-0.22 0.032,-0.257 Z m 0.038,0 c 0,0.031 0.004,0.06 0.013,0.088 0.009,0.029 0.021,0.054 0.038,0.076 0.017,0.022 0.037,0.039 0.062,0.052 0.025,0.013 0.053,0.02 0.085,0.02 0.032,0 0.06,-0.007 0.085,-0.02 0.025,-0.013 0.045,-0.03 0.062,-0.052 0.017,-0.022 0.029,-0.047 0.038,-0.076 0.009,-0.028 0.013,-0.057 0.013,-0.088 0,-0.031 -0.004,-0.06 -0.013,-0.089 C 0.444,-0.374 0.432,-0.399 0.415,-0.421 0.398,-0.443 0.378,-0.46 0.353,-0.474 0.328,-0.487 0.3,-0.493 0.268,-0.493 c -0.032,0 -0.06,0.006 -0.085,0.019 C 0.158,-0.46 0.138,-0.443 0.121,-0.421 0.104,-0.399 0.092,-0.374 0.083,-0.346 0.074,-0.317 0.07,-0.288 0.07,-0.257 Z"
             style="fill-rule:nonzero;stroke-width:3.59107;fill:#ffffff"
             id="path10" />
        </g>
        <g
           transform="matrix(101.107,0,0,101.107,991.576,821.268)"
           id="g16"
           style="stroke-width:3.59107;fill:#ffffff">
          <path
             d="m 0.103,-0.396 h 0.002 c 0.004,-0.013 0.011,-0.027 0.02,-0.042 0.009,-0.015 0.022,-0.03 0.037,-0.043 0.015,-0.013 0.034,-0.023 0.056,-0.032 0.021,-0.009 0.046,-0.013 0.074,-0.013 0.039,0 0.074,0.007 0.103,0.022 0.029,0.015 0.053,0.034 0.072,0.059 0.019,0.025 0.033,0.053 0.042,0.086 0.009,0.033 0.014,0.067 0.014,0.103 0,0.039 -0.005,0.075 -0.014,0.108 C 0.5,-0.115 0.486,-0.087 0.467,-0.064 0.448,-0.04 0.424,-0.021 0.395,-0.008 0.366,0.005 0.331,0.012 0.292,0.012 0.249,0.012 0.211,0.003 0.178,-0.016 0.145,-0.035 0.12,-0.065 0.105,-0.107 H 0.103 V 0.184 H 0.065 v -0.698 h 0.038 z m 0.189,0.375 c 0.033,0 0.062,-0.006 0.087,-0.019 0.024,-0.013 0.044,-0.03 0.06,-0.051 0.015,-0.021 0.027,-0.046 0.035,-0.075 0.007,-0.028 0.011,-0.058 0.011,-0.09 0,-0.029 -0.004,-0.058 -0.011,-0.087 C 0.467,-0.371 0.455,-0.396 0.44,-0.419 0.425,-0.441 0.405,-0.459 0.381,-0.473 0.356,-0.486 0.327,-0.493 0.292,-0.493 c -0.034,0 -0.063,0.007 -0.087,0.02 -0.024,0.013 -0.043,0.031 -0.058,0.053 -0.016,0.022 -0.026,0.047 -0.033,0.075 -0.007,0.029 -0.01,0.058 -0.01,0.089 0,0.031 0.003,0.06 0.009,0.088 0.006,0.029 0.016,0.054 0.031,0.075 0.014,0.022 0.033,0.039 0.058,0.052 0.024,0.013 0.054,0.02 0.09,0.02 z"
             style="fill-rule:nonzero;stroke-width:3.59107;fill:#ffffff"
             id="path14" />
        </g>
        <g
           transform="matrix(101.107,0,0,101.107,1047.79,821.268)"
           id="g20"
           style="stroke-width:3.59107;fill:#ffffff">
          <rect
             x="0.064999998"
             y="-0.71399999"
             width="0.037999999"
             height="0.71399999"
             style="fill-rule:nonzero;stroke-width:3.59107;fill:#ffffff"
             id="rect18" />
        </g>
        <g
           transform="matrix(101.107,0,0,101.107,1064.78,821.268)"
           id="g24"
           style="stroke-width:3.59107;fill:#ffffff">
          <path
             d="m 0.071,-0.252 v 0.006 c 0,0.03 0.004,0.059 0.012,0.086 0.008,0.027 0.02,0.051 0.036,0.072 0.015,0.021 0.035,0.037 0.059,0.049 0.023,0.012 0.051,0.018 0.082,0.018 0.051,0 0.092,-0.014 0.122,-0.041 0.03,-0.027 0.051,-0.064 0.062,-0.112 H 0.482 C 0.471,-0.114 0.446,-0.068 0.409,-0.036 0.371,-0.004 0.321,0.012 0.259,0.012 0.221,0.012 0.188,0.005 0.16,-0.009 0.131,-0.022 0.108,-0.041 0.089,-0.065 0.069,-0.088 0.055,-0.116 0.046,-0.149 0.037,-0.181 0.032,-0.216 0.032,-0.253 c 0,-0.036 0.005,-0.07 0.015,-0.104 0.009,-0.033 0.024,-0.062 0.043,-0.087 0.019,-0.024 0.044,-0.045 0.073,-0.06 0.029,-0.015 0.063,-0.022 0.102,-0.022 0.036,0 0.068,0.007 0.096,0.02 0.027,0.013 0.05,0.032 0.069,0.054 0.019,0.024 0.033,0.05 0.043,0.08 0.009,0.031 0.014,0.063 0.014,0.098 L 0.486,-0.252 Z M 0.448,-0.285 C 0.447,-0.313 0.442,-0.339 0.434,-0.365 0.426,-0.39 0.414,-0.412 0.399,-0.431 0.383,-0.45 0.364,-0.465 0.342,-0.476 0.319,-0.487 0.294,-0.493 0.265,-0.493 c -0.031,0 -0.058,0.006 -0.081,0.017 -0.023,0.012 -0.043,0.028 -0.059,0.046 -0.016,0.019 -0.028,0.042 -0.037,0.067 -0.009,0.025 -0.014,0.051 -0.016,0.078 z"
             style="fill-rule:nonzero;stroke-width:3.59107;fill:#ffffff"
             id="path22" />
        </g>
      </g>
      <g
         transform="matrix(1.26189,0,0,1.26189,470.846,75.198)"
         id="g30"
         style="stroke-width:3.59107;fill:#ffffff">
        <path
           d="M 77.9,379.8 H 53.3 L 21,290.6 h 26.2 l 18.5,65.8 h 0.5 l 19,-65.8 h 25.1 z m 110.6,-17.5 c 0,10.6 2.4,13 5.3,14.1 v 3.4 h -25.4 c -1.3,-3.4 -2.1,-7 -2.4,-10.6 -7.1,8.5 -17.8,13.3 -28.9,13 -13.5,0 -27.3,-7.4 -27.3,-25.9 0,-18.5 11.1,-26.5 25.9,-28.6 l 21.4,-3.2 c 3.7,-0.5 8.2,-2.1 8.2,-7.1 0,-10 -9.5,-10.5 -15.7,-10.5 -11.6,0 -13.8,7.1 -14.3,12.4 h -22.8 c 2.6,-27.2 21.7,-31.2 40,-31.2 12.7,0 35.7,4 35.7,25.9 z m -22.9,-25.9 c -2.4,1.8 -6.4,3.5 -16.1,4.8 -9.8,1.2 -15.9,3.7 -15.9,13.5 -0.3,5.7 4.1,10.5 9.8,10.9 h 1.1 c 10.6,0 21.2,-6.9 21.2,-17.6 v -11.6 z m 60.8,43.4 H 202.8 V 259.4 h 23.6 z m 44.7,-89.2 h 14.8 v 16.7 H 271.1 V 356 c 0,5 0.3,7.1 9.8,7.1 h 5 v 17.8 h -14.3 c -20.4,0 -24.1,-7.7 -24.1,-19.4 v -54.2 h -12.2 v -16.7 h 12.2 v -24.1 h 23.6 z m 106.9,63 c -6.4,21.7 -24.4,28.6 -39.7,28.6 -25.1,0 -44.5,-11.9 -44.5,-48.7 0,-10.9 3.7,-45.2 42.9,-45.2 17.7,0 42.1,8.5 42.1,49.2 v 4.2 h -61.4 c 0.5,6.6 2.1,21.7 20.9,21.7 6.6,0 13.5,-3.2 15.4,-9.8 z m -23.3,-27.3 c -1.3,-14.3 -10.9,-18.8 -18.3,-18.8 -7.4,0 -16.9,7.1 -18.5,18.8 z m 112.8,20.9 c -0.8,9.3 -7.9,34.9 -40.7,34.9 -32.8,0 -41.5,-25.7 -41.5,-44.5 0,-28.8 12.7,-49.4 42.9,-49.4 14.3,0 37.6,6.4 39.7,34.1 H 444.1 C 443,316.8 439.6,308 429.6,308 h -1.3 c -14.8,0 -18.5,14.8 -18.5,25.9 0,11.1 0.3,28.9 18,28.9 12.2,0 16.1,-11.4 16.1,-15.6 z m 91.8,32.6 h -23.6 v -54 c 0,-6.6 -0.5,-17.6 -15.4,-17.6 -10.6,0 -18.5,7.1 -18.5,20.6 v 51 H 478.2 V 259.4 h 23.6 v 42.9 h 0.3 c 2.9,-7.4 13.2,-14 25.9,-14 17.5,0 31.2,10.3 31.2,29.9 z m 14.6,-16.7 H 621 v 16.8 h -47.1 z"
           style="fill-rule:nonzero;stroke-width:3.59107;fill:#ffffff"
           id="path28" />
      </g>
    </g>
  </g>
</svg>
